<svg width="92" height="77" viewBox="0 0 92 77" fill="none" xmlns="http://www.w3.org/2000/svg">
<path d="M26.2373 27.651C26.2373 37.5921 34.2961 45.651 44.2373 45.651L48.8029 45.651C51.5644 45.651 53.8029 43.4124 53.8029 40.651L53.8029 31.0442C53.8029 25.5214 49.3258 21.0442 43.8029 21.0442L31.2373 21.0442C28.4758 21.0442 26.2373 23.2828 26.2373 26.0442L26.2373 27.651Z" fill="#FFF1DA"/>
<path d="M53.0222 43.6128C52.2734 43.7656 51.544 44.0486 50.8793 44.444C49.1478 45.449 48.1404 46.8836 48.6293 47.648C49.1183 48.4124 50.9184 48.2169 52.6499 47.2119C53.3235 46.8304 53.9219 46.3429 54.4083 45.7795C54.634 45.5073 54.6745 45.1681 54.5117 44.9145L53.8765 43.9215C53.7149 43.6671 53.3796 43.5462 53.0222 43.6128Z" fill="#D5D6DB"/>
<path d="M48.674 30.0575C48.131 30.1683 47.602 30.3736 47.1201 30.6604C45.8648 31.3889 45.1339 32.4292 45.4882 32.983C45.8424 33.5368 47.1482 33.3949 48.4033 32.6664C48.8917 32.3897 49.3256 32.036 49.6783 31.6274C49.8418 31.4301 49.871 31.1843 49.7531 31.0005L49.2931 30.2815C49.1761 30.0971 48.9332 30.0092 48.674 30.0575Z" fill="#D5D6DB"/>
<path d="M41.6094 30.6251C41.4885 30.6129 41.3596 30.6422 41.2478 30.7072L38.2993 32.4188C38.0527 32.5615 37.954 32.8364 38.0791 33.0328C38.1077 33.0778 38.1469 33.1163 38.1944 33.1459L45.4616 37.7081L55.2934 32.001L41.6094 30.6251Z" fill="#029BC5"/>
<path d="M72.6907 29.98L45.9344 45.3227L30.1047 51.0603L22.0318 52.522L21.1436 51.1474L65.7422 26.0653C67.0713 25.3146 68.5519 24.8538 70.0343 24.7297C70.6835 24.6785 71.3246 24.6982 71.9427 24.788C72.4907 24.8637 73.0105 25.0097 73.4867 25.2216C74.0181 25.4618 75.0296 25.4895 75.3572 25.968C75.3583 25.9672 76.1312 28.1639 72.6907 29.98V29.98Z" fill="#E1E6E9"/>
<path d="M46.2891 43.2926L34.7141 60.1005C34.5696 60.3366 34.6554 60.601 34.9056 60.691C35.0592 60.7463 35.2471 60.7244 35.405 60.6331L38.3513 58.9306C38.9179 58.603 39.4197 58.1869 39.8255 57.708L62.273 33.6692L46.2891 43.2926Z" fill="#029BC5"/>
<path d="M17.0807 42.7314C16.8877 42.6713 16.6579 42.7025 16.4639 42.815L14.0285 44.2278C13.6966 44.4202 13.5644 44.79 13.733 45.054C13.7652 45.1042 13.8069 45.1484 13.8569 45.1847L20.6804 50.1625L27.8546 46.0807L17.0807 42.7314Z" fill="#029BC5"/>
<path d="M22.9674 51.0598L19.2949 55.7449C19.241 55.8123 19.2537 55.8968 19.3231 55.9336C19.3732 55.9601 19.4416 55.9554 19.4972 55.9215L21.7731 54.6078C21.7908 54.5976 21.8068 54.5848 21.82 54.5702L27.1863 48.627L22.9674 51.0598Z" fill="#029BC5"/>
<path d="M71.5035 24.99C70.867 24.8969 70.2067 24.877 69.5381 24.9305C68.887 25.7597 68.4709 26.6911 68.3312 27.6319C68.321 27.8208 68.4883 27.9568 68.7049 27.9357C68.7722 27.929 68.8392 27.9075 68.8995 27.8729L73.0937 25.4402C72.6033 25.22 72.0679 25.0684 71.5035 24.99Z" fill="#029BC5"/>
<path d="M62.3631 29.4635L65.1015 27.8882L67.6522 31.8398L64.9138 33.4152L62.3631 29.4635Z" fill="#D5D6DB"/>
<path d="M60.64 31.0264C60.31 31.2168 60.1781 31.5828 60.3457 31.8438L60.6171 32.2666C60.7956 32.5209 61.2032 32.5656 61.5275 32.3664C61.8362 32.1767 61.9604 31.8319 61.8117 31.5773L61.5403 31.1544C61.3729 30.8937 60.97 30.8363 60.64 31.0264V31.0264Z" fill="#3A556A"/>
<path d="M58.1787 32.4187C57.8487 32.6091 57.7168 32.975 57.8844 33.236L58.1558 33.6589C58.3343 33.9132 58.7419 33.9579 59.0662 33.7587C59.3749 33.569 59.4992 33.2241 59.3504 32.9695L59.079 32.5467C58.9115 32.286 58.5086 32.2286 58.1787 32.4187V32.4187Z" fill="#3A556A"/>
<path d="M55.7166 33.8114C55.387 34.002 55.2556 34.3676 55.423 34.6283L55.6944 35.0511C55.8729 35.3055 56.2805 35.3502 56.6048 35.151C56.9135 34.9613 57.0378 34.6164 56.889 34.3618L56.6176 33.939C56.4501 33.678 56.0467 33.6209 55.7166 33.8114V33.8114Z" fill="#3A556A"/>
<path d="M53.2554 35.2036C52.9258 35.3943 52.7944 35.7598 52.9618 36.0206L53.2332 36.4434C53.4117 36.6977 53.8193 36.7425 54.1436 36.5432C54.4523 36.3535 54.5765 36.0087 54.4278 35.7541L54.1564 35.3312C53.9887 35.0703 53.5854 35.0132 53.2554 35.2036V35.2036Z" fill="#3A556A"/>
<path d="M50.7944 36.5959C50.4646 36.7866 50.3331 37.1524 50.5006 37.4132L50.7721 37.8362C50.9396 38.097 51.3427 38.1541 51.6726 37.9638C52.0025 37.7735 52.1342 37.4078 51.9668 37.147L51.6952 36.724C51.5282 36.463 51.1252 36.4055 50.7951 36.5955C50.7948 36.5957 50.7947 36.5958 50.7944 36.5959Z" fill="#3A556A"/>
<path d="M48.3331 37.9882C48.0033 38.179 47.8718 38.5447 48.0393 38.8055L48.3109 39.2285C48.4783 39.4893 48.8814 39.5464 49.2113 39.3561C49.5412 39.1658 49.6729 38.8001 49.5055 38.5393L49.2339 38.1163C49.0669 37.8553 48.6639 37.7978 48.3338 37.9878C48.3335 37.988 48.3332 37.9881 48.3331 37.9882Z" fill="#3A556A"/>
<path d="M45.8717 39.3805C45.5419 39.5712 45.4104 39.9369 45.5779 40.1978L45.8494 40.6208C46.0173 40.8813 46.4206 40.9378 46.7502 40.7473C47.0791 40.557 47.2106 40.1921 47.0439 39.9317L46.7724 39.5087C46.605 39.2477 46.2019 39.1903 45.8717 39.3805Z" fill="#3A556A"/>
<path d="M43.4103 40.7728C43.0805 40.9635 42.949 41.3292 43.1165 41.5901L43.3881 42.0131C43.5559 42.2736 43.9592 42.3302 44.2888 42.1396C44.6177 41.9494 44.7492 41.5844 44.5825 41.324L44.311 40.901C44.1436 40.64 43.7405 40.5826 43.4103 40.7728Z" fill="#3A556A"/>
<path d="M40.9491 42.1651C40.6193 42.3558 40.4878 42.7215 40.6553 42.9824L40.9268 43.4054C41.0947 43.6659 41.498 43.7224 41.8275 43.5318C42.1565 43.3416 42.288 42.9767 42.1213 42.7162L41.8497 42.2933C41.6823 42.0324 41.2791 41.975 40.9491 42.1651Z" fill="#3A556A"/>
<path d="M38.487 43.5577C38.1571 43.7481 38.0254 44.1137 38.1928 44.3745L38.1932 44.3751L38.4648 44.7981C38.6326 45.0586 39.0359 45.1151 39.3655 44.9245C39.6945 44.7343 39.8259 44.3694 39.6592 44.1089L39.3877 43.6859C39.2203 43.425 38.8172 43.3676 38.487 43.5577Z" fill="#3A556A"/>
<path d="M36.0264 44.9496C35.6965 45.1399 35.5648 45.5056 35.7322 45.7663L35.7326 45.7669L36.0042 46.1899C36.172 46.4504 36.5753 46.5069 36.9049 46.3164C37.2339 46.1261 37.3653 45.7612 37.1987 45.5008L36.9271 45.0778C36.7596 44.8169 36.3564 44.7595 36.0264 44.9496Z" fill="#3A556A"/>
</svg>
